<svg xmlns="http://www.w3.org/2000/svg" viewBox="228 226 799 799" width="256" height="256" role="img" aria-label="Tessera">
  <title>Tessera</title>
  <path fill="#e2e2e2" d="M693 331L703 333L725 347L739 353L741 356L753 361L757 370L759 391L761 393L760 398L762 400L764 422L767 430L766 439L762 443L716 442L715 440L704 441L701 439L689 440L687 438L655 437L624 427L610 425L603 421L605 380L608 367L614 362L621 361L629 356L636 355L644 350Z"/>
  <path fill="#adadad" d="M544 325L553 325L558 328L595 368L594 396L590 421L576 427L515 442L442 441L440 435L463 366L467 362Z"/>
  <path fill="#c9c9c9" d="M648 447L730 451L736 455L737 538L730 546L719 548L704 556L695 558L672 570L667 570L655 578L643 579L617 546L615 537L631 496L643 453Z"/>
  <path fill="#c9c9c9" d="M522 840L609 856L616 862L623 875L624 886L621 894L617 899L587 975L581 983L525 984L518 977L517 847L518 843Z"/>
  <path fill="#e2e2e2" d="M647 883L675 888L735 906L739 914L739 974L735 981L726 985L687 983L600 984L597 981L599 969L634 888L639 884Z"/>
  <path fill="#c9c9c9" d="M716 266L863 267L866 272L865 279L867 280L866 296L868 298L868 311L861 317L764 351L758 351L728 333L704 322L699 317L699 308L704 295L704 288L707 285L706 281L710 270Z"/>
  <path fill="#e2e2e2" d="M523 538L546 541L547 543L577 545L578 547L599 550L608 553L619 565L635 587L638 596L633 637L628 648L629 652L625 657L620 658L601 652L595 648L567 640L521 622L518 618L516 603L518 600L516 563L518 542Z"/>
  <path fill="#f0862b" d="M606 728L614 728L618 732L635 791L635 807L616 840L612 843L598 843L521 829L519 826L518 758L527 752Z"/>
  <path fill="#adadad" d="M533 267L691 267L696 270L697 276L689 299L686 317L680 327L626 346L613 353L601 354L596 352L567 321L563 320L544 303L529 276L529 269Z"/>
  <path fill="#e2e2e2" d="M729 671L736 674L738 679L737 764L731 770L656 796L650 796L645 792L642 775L630 739L628 731L629 718L638 710L647 697L652 694L691 684Z"/>
  <path fill="#adadad" d="M593 434L620 436L631 444L631 456L627 470L603 537L598 540L579 538L517 526L519 454L528 449Z"/>
  <path fill="#7c4dff" d="M728 556L734 556L737 560L737 647L735 658L720 665L650 686L643 685L637 674L636 665L651 591L664 583Z"/>
  <path fill="#adadad" d="M871 325L878 325L882 328L883 341L848 439L844 442L782 442L779 440L768 375L769 362Z"/>
  <path fill="#adadad" d="M728 780L732 780L736 785L737 887L734 892L717 890L659 875L639 873L634 870L625 855L625 845L640 818L649 807Z"/>
  <path fill="#c8a84e" d="M366 266L416 268L416 274L401 304L363 348L310 374L303 374L301 372L301 277L303 272L311 267Z"/>
  <path fill="#adadad" d="M520 634L540 639L620 668L632 688L630 702L617 715L580 724L535 740L519 741L517 640Z"/>
  <path fill="#e2e2e2" d="M897 341L927 350L950 360L953 364L953 431L946 442L927 444L866 444L860 441L860 433L879 383L882 369L892 343Z"/>
  <path fill="#e2e2e2" d="M433 266L509 266L513 268L531 301L535 312L534 318L466 352L457 352L417 303L418 290L427 271Z"/>
  <path fill="#e2e2e2" d="M357 362L364 363L369 368L377 382L403 412L408 422L416 429L422 438L421 443L310 444L304 440L301 434L301 389Z"/>
  <path fill="#adadad" d="M883 266L941 266L951 272L953 277L953 343L950 347L943 347L929 340L906 333L891 324L883 311L878 292L878 277Z"/>
  <path fill="#adadad" d="M406 314L413 314L419 320L450 360L450 371L435 421L431 426L426 426L423 423L375 359L377 347Z"/>
</svg>
