<svg xmlns="http://www.w3.org/2000/svg" width="2732" height="2732" viewBox="0 0 2732 2732"><svg x="1038.16" y="1038.16" width="655.68" height="655.68" viewBox="258 246 737 737"><path fill="#2c2d2f" fill-rule="evenodd" d="M403 320L469 377L424 562L425 570L457 609L468 684L473 683L523 605L664 560L715 548L781 606L839 766L811 915L813 920L794 935L911 937L911 943L342 943L342 937L398 935L367 882L367 361ZM629 657L611 662L590 682L561 731L470 689L426 805L424 815L534 936L606 934L595 815L611 821L665 819L706 794L718 773L725 743L724 720L706 680L677 662L654 657Z"/><path fill="#474849" fill-rule="evenodd" d="M576 342L582 343L583 352L587 502L524 605L469 685L457 609L424 568L469 377Z"/><path fill="#474849" fill-rule="evenodd" d="M470 689L561 731L576 799L595 814L605 935L534 936L424 815Z"/><path fill="#474849" fill-rule="evenodd" d="M733 485L786 594L872 642L844 556L845 550L867 599L893 680L880 696L840 766L781 606L713 548Z"/><path fill="#606162" fill-rule="evenodd" d="M728 483L734 485L713 547L524 605L586 502Z"/><path fill="#38383a" fill-rule="evenodd" d="M891 680L896 688L896 701L884 839L812 919L838 767Z"/><path fill="#606162" fill-rule="evenodd" d="M506 286L542 309L579 337L582 343L576 342L468 377L405 321L407 317Z"/><path fill="#f0862b" fill-rule="evenodd" d="M735 485L841 543L872 642L784 592Z"/></svg></svg>
